<svg width="200" height="200" viewBox="0 0 200 200" fill="none" xmlns="http://www.w3.org/2000/svg">
<path fill-rule="evenodd" clip-rule="evenodd" d="M183.021 155.557C194.091 139.112 200 119.778 200 100C199.983 73.4834 189.364 48.0576 170.474 29.3075C151.584 10.5575 125.968 0.0164838 99.254 0C79.3283 0 59.8501 5.86488 43.2825 16.853C37.4849 20.6981 32.1349 25.1101 27.3024 30.0045H85.2211C90.1747 30.0302 94.9179 31.9947 98.4207 35.4715C101.923 38.9483 103.903 43.6565 103.929 48.5733C103.946 51.0172 103.474 53.4401 102.539 55.7013C101.605 57.9624 100.227 60.0168 98.4864 61.7449C96.7454 63.473 94.6758 64.8405 92.3978 65.7678C90.1197 66.6951 87.6787 67.1638 85.2167 67.1466H4.10007C2.62313 71.3611 1.43628 75.6569 0.542459 80.0044H53.1973C55.6314 80.0248 58.0375 80.5215 60.2779 81.4662C62.5182 82.411 64.5488 83.7852 66.2533 85.5101C67.9577 87.235 69.3027 89.2767 70.211 91.5183C71.1193 93.7599 71.5731 96.1573 71.5465 98.5733C71.5638 101.017 71.0916 103.44 70.1574 105.701C69.2231 107.962 67.8455 110.017 66.1045 111.745C64.3634 113.473 62.2938 114.84 60.0158 115.768C57.7377 116.695 55.2967 117.164 52.8346 117.147H0C0.138263 117.935 0.286176 118.723 0.443754 119.509C1.13215 122.944 1.99955 126.33 3.0392 129.653H85.2211C90.155 129.741 94.862 131.726 98.3514 135.189C101.841 138.653 103.84 143.325 103.929 148.222C103.946 150.666 103.474 153.089 102.539 155.35C101.605 157.611 100.227 159.666 98.4864 161.394C96.7454 163.122 94.6758 164.489 92.3978 165.417C90.1197 166.344 87.6787 166.813 85.2167 166.796H24.2787C25.4865 168.131 26.7325 169.437 28.0158 170.711C42.1054 184.696 60.0566 194.22 79.5994 198.078C99.1422 201.937 119.399 199.957 137.808 192.388C156.217 184.819 171.951 172.002 183.021 155.557Z" fill="#FFCD33"/>
</svg>
